<?xml version="1.0" standalone="no"?>
<!DOCTYPE svg PUBLIC "-//W3C//DTD SVG 20010904//EN"
 "http://www.w3.org/TR/2001/REC-SVG-20010904/DTD/svg10.dtd">
<svg version="1.0" xmlns="http://www.w3.org/2000/svg"
 width="512.000000pt" height="512.000000pt" viewBox="0 0 512.000000 512.000000"
 preserveAspectRatio="xMidYMid meet">
<metadata>
Created by potrace 1.14, written by Peter Selinger 2001-2017
</metadata>
<g transform="translate(0.000000,512.000000) scale(0.100000,-0.100000)"
fill="#000000" stroke="none">
<path d="M2799 5116 c-2 -2 -29 -7 -59 -10 -87 -10 -132 -17 -175 -28 -22 -6
-50 -12 -61 -14 -104 -19 -367 -116 -509 -187 -816 -408 -1521 -1248 -1785
-2126 -57 -189 -93 -382 -106 -567 -6 -90 -6 -299 0 -344 3 -19 8 -62 11 -95
26 -256 134 -557 283 -790 93 -146 269 -345 377 -427 17 -12 32 -25 35 -28 3
-3 21 -17 40 -31 320 -236 671 -381 1065 -440 39 -5 84 -12 100 -15 50 -10
495 -12 575 -4 89 9 175 20 204 26 11 2 36 6 56 9 20 3 47 8 60 10 14 3 36 7
50 10 53 10 69 14 190 44 528 133 1110 419 1597 786 108 82 272 218 272 228 1
4 -6 7 -15 7 -32 0 -222 81 -303 130 -107 63 -175 116 -258 199 -69 68 -156
180 -188 241 -109 208 -155 362 -170 569 -3 35 -6 66 -8 67 -2 2 -46 -37 -98
-88 -428 -415 -991 -762 -1416 -872 -162 -43 -270 -58 -423 -61 -210 -5 -366
27 -523 106 -210 106 -332 246 -392 454 -33 115 -40 172 -40 325 1 298 82 592
255 927 55 106 212 353 272 427 88 110 130 159 183 215 65 68 167 168 202 198
12 10 31 26 43 36 53 44 210 156 265 189 231 137 451 207 674 212 345 9 613
-185 670 -485 10 -54 8 -247 -4 -304 -101 -500 -483 -968 -875 -1070 -93 -25
-231 -25 -298 0 -135 49 -204 164 -197 328 8 178 99 361 260 523 176 177 397
226 514 114 93 -89 77 -258 -40 -416 -48 -66 -91 -101 -159 -132 -100 -47
-185 -27 -220 52 -28 62 -6 152 56 225 41 49 20 49 -25 0 -100 -107 -113 -229
-32 -310 136 -136 419 -14 548 236 66 129 78 224 43 339 -45 146 -211 248
-390 239 -256 -12 -533 -203 -706 -488 -138 -226 -176 -483 -102 -684 118
-321 488 -480 898 -385 439 101 889 495 1129 989 122 251 175 464 175 710 1
186 -25 320 -91 474 -169 399 -549 672 -1034 745 -83 12 -390 21 -400 12z"/>
</g>
</svg>
