<?xml version="1.0" standalone="no"?>
<!DOCTYPE svg PUBLIC "-//W3C//DTD SVG 20010904//EN"
 "http://www.w3.org/TR/2001/REC-SVG-20010904/DTD/svg10.dtd">
<svg version="1.0" xmlns="http://www.w3.org/2000/svg"
 width="1026.000000pt" height="1026.000000pt" viewBox="0 0 1026.000000 1026.000000"
 preserveAspectRatio="xMidYMid meet">
<metadata>
Created by potrace 1.14, written by Peter Selinger 2001-2017
</metadata>
<g transform="translate(0.000000,1026.000000) scale(0.100000,-0.100000)"
fill="#000000" stroke="none">
<path d="M1290 10244 c-53 -7 -116 -18 -140 -24 -25 -7 -54 -14 -64 -16 -101
-19 -314 -117 -443 -203 -91 -61 -248 -206 -320 -296 -142 -177 -245 -398
-294 -635 -24 -117 -33 -339 -18 -450 5 -36 11 -81 13 -100 16 -110 75 -281
147 -417 222 -428 619 -707 1109 -781 42 -7 227 -7 440 -2 112 3 165 -15 234
-83 66 -66 91 -126 91 -223 0 -138 14 -120 -615 -752 -305 -307 -565 -571
-578 -587 -69 -91 -151 -303 -167 -430 -7 -59 -7 -198 0 -240 24 -133 35 -171
82 -275 61 -134 106 -184 664 -745 301 -302 556 -561 566 -575 32 -42 53 -113
53 -178 0 -112 -70 -221 -176 -273 -44 -22 -60 -24 -154 -21 -326 10 -414 7
-528 -18 -30 -7 -59 -13 -65 -14 -7 -1 -18 -5 -25 -9 -6 -5 -12 -6 -12 -3 0
11 -178 -57 -271 -104 -429 -214 -719 -617 -796 -1105 -16 -100 -8 -404 13
-495 3 -14 8 -36 10 -49 19 -98 102 -305 174 -430 126 -219 359 -433 605 -555
222 -110 391 -150 635 -150 91 -1 192 3 225 7 249 32 535 157 733 320 60 50
183 176 229 237 236 306 345 706 298 1090 -12 95 -7 138 21 201 75 167 281
233 435 140 18 -11 280 -267 583 -569 303 -301 574 -565 602 -585 80 -57 221
-123 319 -148 75 -20 113 -24 235 -23 158 0 215 11 350 66 159 65 198 99 790
691 305 305 570 562 589 571 92 48 188 53 273 14 74 -34 119 -76 154 -145 27
-55 29 -64 26 -158 -10 -283 -7 -406 13 -505 11 -54 18 -95 18 -100 -1 -16 75
-218 109 -288 41 -83 122 -211 173 -273 72 -85 238 -239 316 -291 161 -108
384 -200 564 -232 145 -27 407 -27 530 -2 313 64 547 183 759 386 286 274 446
637 451 1030 3 170 -21 359 -55 445 -4 11 -15 45 -24 75 -8 31 -36 98 -61 149
-213 437 -606 736 -1076 817 -113 20 -310 24 -469 11 -83 -7 -102 -6 -148 12
-67 25 -115 61 -149 112 -64 97 -74 206 -29 304 22 48 104 135 581 612 588
589 621 626 687 783 60 141 73 211 72 385 -1 188 -43 325 -152 494 -45 70
-145 175 -605 636 -304 303 -577 570 -607 593 -119 88 -260 135 -410 136 -107
1 -170 -8 -238 -31 -323 -108 -524 -412 -497 -747 10 -120 11 -299 2 -362 -19
-135 -89 -314 -175 -443 -50 -76 -193 -218 -271 -271 -128 -86 -310 -158 -451
-177 -30 -4 -109 -7 -175 -6 -461 5 -872 324 -995 775 -26 95 -31 132 -35 254
-14 459 270 868 711 1027 38 14 86 28 105 31 18 3 57 10 84 15 45 9 184 8 401
-3 45 -2 103 0 130 6 27 5 60 12 74 14 14 3 54 18 91 33 435 183 579 713 300
1101 -14 19 -278 287 -586 595 -410 410 -580 573 -633 609 -114 75 -246 124
-407 151 -42 7 -186 7 -226 1 -19 -3 -45 -8 -59 -10 -101 -16 -249 -78 -355
-148 -36 -25 -279 -259 -612 -592 -623 -622 -610 -611 -742 -610 -42 0 -83 2
-91 5 -93 32 -156 86 -196 167 -27 54 -29 63 -25 157 9 219 4 410 -12 500 -75
416 -339 796 -698 1006 -281 164 -621 234 -939 193z m457 -439 c393 -103 686
-417 768 -824 18 -92 23 -236 10 -351 -12 -107 -12 -136 1 -220 27 -164 93
-291 214 -411 243 -240 628 -272 920 -76 25 16 291 276 593 576 301 300 572
563 603 583 163 110 392 109 562 -3 29 -18 297 -279 596 -579 611 -613 587
-583 582 -725 -4 -115 -65 -212 -169 -267 -39 -21 -52 -23 -177 -20 -283 8
-387 5 -465 -11 -11 -2 -38 -8 -60 -12 -22 -3 -89 -23 -150 -42 -373 -119
-681 -381 -854 -728 -65 -129 -85 -183 -115 -302 -23 -92 -30 -128 -41 -213
-6 -44 -7 -276 -1 -310 2 -14 7 -47 11 -75 27 -208 144 -486 280 -666 221
-292 601 -518 950 -565 27 -3 61 -8 75 -10 36 -5 271 -5 296 0 12 2 45 7 75
11 185 23 427 116 592 226 205 139 372 322 489 539 36 67 103 229 112 271 3
13 12 53 21 89 18 72 21 86 31 180 10 100 11 190 2 276 -16 147 -13 197 16
261 72 157 230 221 394 161 53 -19 93 -56 613 -577 492 -491 561 -564 589
-620 46 -93 60 -146 60 -236 1 -87 -2 -105 -25 -175 -36 -108 -74 -151 -621
-698 -295 -295 -551 -555 -569 -577 -47 -57 -100 -159 -125 -240 -26 -81 -35
-258 -19 -344 45 -236 224 -450 448 -536 118 -45 276 -61 386 -41 40 8 230 8
280 1 530 -79 915 -520 918 -1050 3 -585 -477 -1062 -1064 -1057 -460 3 -865
301 -1002 737 -49 158 -59 264 -42 455 5 52 9 115 9 140 0 269 -164 522 -415
639 -117 54 -175 66 -314 66 -96 0 -135 -5 -195 -24 -85 -26 -186 -78 -245
-126 -22 -18 -286 -278 -586 -577 -541 -542 -546 -546 -630 -586 -169 -82
-344 -73 -501 24 -24 14 -295 277 -603 584 -326 324 -583 572 -615 593 -280
181 -652 146 -897 -85 -137 -130 -226 -344 -217 -525 17 -368 13 -427 -37
-583 -173 -538 -755 -851 -1294 -695 -369 107 -656 406 -740 770 -25 104 -28
137 -28 255 1 128 12 201 48 317 103 328 374 593 710 695 116 35 320 48 464
30 428 -55 803 263 816 694 5 145 -35 289 -113 414 -22 34 -246 267 -597 620
-354 356 -573 583 -590 613 -63 110 -85 240 -61 357 34 163 20 146 641 770
385 386 576 585 603 628 117 182 148 414 82 618 -83 257 -305 452 -563 494
-84 13 -135 14 -242 4 -247 -23 -433 9 -628 108 -241 121 -429 335 -519 588
-11 30 -21 63 -24 73 -2 9 -6 27 -9 40 -116 477 128 983 575 1195 103 49 256
90 365 98 44 4 81 7 82 8 9 8 206 -20 280 -39z m4311 -4882 c-10 -2 -26 -2
-35 0 -10 3 -2 5 17 5 19 0 27 -2 18 -5z m-4541 -2329 c-3 -3 -12 -4 -19 -1
-8 3 -5 6 6 6 11 1 17 -2 13 -5z m7260 0 c-3 -3 -12 -4 -19 -1 -8 3 -5 6 6 6
11 1 17 -2 13 -5z"/>
</g>
</svg>
